<?xml version="1.0" encoding="UTF-8" standalone="no"?>
<!-- Created with Inkscape (http://www.inkscape.org/) -->

<svg
   version="1.1"
   id="svg1"
   width="2000"
   height="1975.2219"
   viewBox="0 0 2000 1975.2219"
   xmlns="http://www.w3.org/2000/svg"
   xmlns:svg="http://www.w3.org/2000/svg">
  <defs
     id="defs1" />
  <g
     id="g1"
     transform="translate(6.1491612e-8,-12.5)">
    <path
       style="fill:#df1854;stroke:none;stroke-width:2.22222"
       d="m 923.01256,15.02317 c -16.05266,6.239426 -19.56334,30.418574 -24.20446,45.017116 -7.83132,24.634082 -17.50934,48.676514 -25.19868,73.333374 -5.306,17.01443 -10.49934,37.1414 -28.3849,45.21596 -20.38846,9.20439 -47.15648,8.63201 -68.88892,14.03999 -41.36936,10.29434 -81.0885,24.24399 -120.00008,41.71117 -23.78402,10.67656 -58.87736,44.59722 -84.4445,44.8682 -13.48644,0.1428 -27.42624,-11.35796 -38.7209,-17.67658 -26.3309,-14.7304 -52.80826,-29.15694 -79.05694,-44.04682 -10.90268,-6.18463 -26.97446,-17.89579 -40.00002,-17.00306 -24.4318,1.67454 -54.98914,37.21874 -73.33338,51.89322 -13.75824,11.00614 -33.49758,21.48954 -43.10358,36.56226 -9.12556,14.31886 3.24978,37.12406 8.57,51.10246 11.68668,30.70696 24.25446,61.7969 33.3898,93.33338 3.10444,10.7167 10.974,21.75484 9.436,33.33336 -1.53178,11.53076 -12.27534,19.48786 -19.49068,27.6785 -14.96934,16.99276 -29.34734,33.84144 -42.44712,52.32154 -23.4978,33.14946 -43.22604,69.2622 -59.05694,106.6668 -8.70068,20.5578 -13.39156,45.43758 -25.2418,64.35516 -8.95511,14.29644 -24.86245,14.25556 -39.83357,16.27244 -30.41891,4.09778 -60.6767,10.93024 -91.111166,14.55046 -17.100898,2.03422 -43.627802,0.14 -50.234916,20.41002 C 10.248467,803.9577 8.1869103,847.9266 3.0035738,884.48508 c -1.6393342,11.56156 -6.5153372,31.07312 1.3391119,41.18312 7.4151153,9.54512 21.7211223,15.16734 31.9924623,21.03736 23.702458,13.546 47.451584,27.00624 71.111152,40.63268 12.58334,7.24734 29.8118,14.61246 36.50558,28.29046 14.38001,29.3847 6.21889,76.5925 10.79556,108.8565 8.10645,57.1474 27.50868,109.003 41.75403,164.4446 5.44111,21.1764 -11.34846,34.5702 -24.23513,48.8889 -17.69868,19.6647 -34.1938,40.3334 -51.86225,60 -9.4169,10.4818 -24.106018,22.048 -29.077576,35.5556 -5.196226,14.118 7.135338,30.3367 13.376226,42.2223 18.3229,34.8953 32.89625,73.2189 53.89581,106.5691 12.27868,19.5003 35.5598,7.5 53.29225,3.4945 31.79714,-7.1825 65.4425,-14.6949 97.77784,-19.2423 14.32868,-2.0148 28.00536,-5.0406 39.91426,5.2398 17.66222,15.2478 29.89224,37.4883 45.17314,55.0501 25.6009,29.4224 54.60536,57.4338 86.02382,80.5898 19.12202,14.0933 38.94446,27.9758 60.19892,38.7022 12.5509,6.334 30.3218,11.8716 37.18114,25.1867 4.86066,9.4358 2.62066,23.0149 2.62,33.2991 -0.002,26.8094 -0.06,55.5394 -2.59956,82.2223 -1.43866,15.1171 -9.6149,38.4358 5.29668,49.2129 30.75202,22.2254 81.9236,29.1045 117.30296,42.6083 13.52134,5.1606 28.99578,12.4658 42.21358,2.7709 27.278,-20.0076 50.46958,-55.5278 72.39204,-81.2587 9.972,-11.7047 20.70156,-29.7798 36.50558,-34.0176 13.56112,-3.636 33.25556,4.3024 46.66668,7.0851 26.62002,5.5235 55.13138,7.1007 82.22228,8.9558 34.78184,2.382 72.33074,-0.2045 106.66674,-5.5574 19.8993,-3.1017 42.0216,-11.6702 62.2222,-10.6462 17.2698,0.8751 26.0732,19.3789 34.4787,31.958 16.7109,25.0085 37.6645,71.2032 63.3885,87.2067 12.0571,7.5016 34.2529,-2.632 46.5774,-6.4333 37.7024,-11.6291 78.9747,-17.1551 115.5454,-32.2051 19.1862,-7.896 13.3435,-33.91 13.3435,-50.7905 v -95.5556 c 0,-18.5867 -2.4462,-34.8416 13.3676,-47.824 14.876,-12.2125 34.6589,-18.8312 51.0769,-28.8547 36.5243,-22.2991 71.497,-46.7145 102.2223,-76.6872 15.8429,-15.4547 31.3249,-31.6707 45.2916,-48.8565 7.4627,-9.1824 13.5004,-21.7886 25.8212,-25.1286 14.8169,-4.0163 36.6631,3.9791 51.1096,7.5842 24.8758,6.2076 50.562,8.6542 75.5556,14.242 18.0667,4.0391 39.5305,15.5893 52.7916,-3.4618 21.6631,-31.1216 36.4022,-68.8071 54.5525,-102.1247 5.7384,-10.5333 17.6177,-25.2887 12.3111,-37.7778 -6.5083,-15.3173 -21.6969,-28.0711 -32.7896,-40 -18.7202,-20.1314 -36.0442,-41.5556 -54.1649,-62.2223 -10.5183,-11.9964 -29.0296,-26.6087 -26.9067,-44.4445 2.3329,-19.6006 12.2149,-39.0782 18.1702,-57.7778 12.0218,-37.7473 23.6007,-78.4493 28.7263,-117.7778 3.3717,-25.8723 6.68,-51.7789 9.1544,-77.7778 1.0931,-11.4852 -2.2569,-25.2707 4.2491,-35.5232 7.7134,-12.1542 21.7232,-16.90534 33.9061,-23.08646 24.9811,-12.67378 50.5591,-24.05868 75.5556,-36.7129 12.7557,-6.45756 35.8637,-11.9429 36.9257,-29.13046 0.7934,-12.84002 -5.266,-25.34936 -7.3151,-37.76936 -4.1335,-25.05202 -7.2424,-50.42136 -10.5537,-75.5556 -1.7525,-13.30068 -1.1874,-29.55246 -12.6869,-38.8598 -10.0809,-8.15912 -25.4214,-7.44734 -37.4812,-10.31868 -36.8153,-8.76578 -94.8367,-6.94444 -126.6325,-27.99402 -24.1182,-15.96644 -33.6716,-64.0327 -45.4218,-89.49404 -18.1882,-39.41198 -40.2442,-77.46106 -64.6227,-113.33348 -12.4651,-18.34174 -29.5707,-35.77094 -39.5046,-55.5659 -8.0617,-16.06472 0.096,-29.07716 5.3037,-44.43416 9.178,-27.06218 20.5409,-53.32142 30.6873,-80.00004 4.2838,-11.26384 13.4012,-25.5092 12.994,-37.7778 -0.49,-14.75886 -18.1946,-26.04982 -28.3591,-34.58174 -29.383,-24.66336 -57.2861,-53.54224 -88.889,-75.28975 -17.1382,-11.79363 -34.3031,4.08311 -48.8889,13.55281 -24.9514,16.19954 -50.2043,32.06572 -75.5556,47.62698 -11.6949,7.17854 -23.3798,15.77366 -37.7778,11.87256 -23.4276,-6.34792 -46.4778,-24.04678 -68.889,-33.92336 -40.6635,-17.9205 -81.7876,-31.02542 -124.4445,-43.07784 -24.0773,-6.80285 -66.8818,-2.46854 -86.4334,-18.25468 -12.5695,-10.14865 -14.3002,-27.01281 -19.2182,-41.25842 -12.5285,-36.28989 -19.468,-85.167964 -39.6074,-117.656051 -8.5369,-13.771986 -25.1195,-11.232918 -39.1855,-11.232918 h -84.44454 c -12.13734,0 -28.51578,-2.810068 -39.9898,1.649579 m -300.0104,476.12849 c 5.77668,-16.92654 38.31448,-30.48098 53.33338,-39.1496 56.9267,-32.857 118.52806,-55.02962 182.22232,-69.49086 273.53994,-62.10482 566.69524,65.88464 706.04284,310.86286 42.5734,74.84494 74.7705,162.54656 80.8232,248.88882 9.3504,133.39322 -7.9176,262.85952 -72.3647,382.22252 -125.6454,232.7085 -383.9625,365.7839 -645.6124,339.6213 -102.52452,-10.2516 -202.89902,-50.0845 -288.88906,-105.813 -76.73006,-49.7273 -142.19364,-118.9729 -190.993,-196.0305 -134.9832,-213.1475 -131.42898,-497.93126 10.56066,-706.66694 32.42224,-47.6631 70.19138,-91.60248 113.76562,-129.51484 13.6558,-11.88152 32.3347,-33.46382 51.11114,-34.92976 m 300.00018,243.54288 c -39.5698,1.42978 -78.34516,4.48022 -117.77784,7.37112 -29.74314,2.18044 -61.52404,4.284 -86.66672,21.97378 -39.24492,27.6118 -49.11402,88.1125 -93.33338,106.9803 -6.37024,2.718 -19.26246,7.11888 -24.9298,1.00488 -6.70868,-7.23668 -0.56288,-22.67046 -6.04422,-31.94268 -14.0129,-23.70424 -51.40048,-13.4618 -64.45138,5.37866 -22.24202,32.10846 40.77914,21.02002 38.13114,35.5558 -1.52022,8.34334 -18.43112,13.67024 -24.84068,17.48624 -17.24712,10.2689 -36.36402,23.78112 -42.98004,43.76024 -7.99532,24.14446 -1.55176,52.84382 -1.55176,77.77782 0,66.2061 3.56978,129.987 12.39022,195.5557 2.56222,19.0473 4.39022,38.5505 2.79666,57.7778 -0.67888,8.1896 -2.33844,18.6625 5.74402,24.0467 5.82356,3.8793 14.66534,2.6173 21.29134,2.62 16.19622,0 58.38426,7.5127 68.85982,-7.1742 8.32644,-11.674 -5.22156,-33.4821 11.38178,-40.3738 9.78912,-4.0634 24.86912,-1.3409 35.31402,-1.3409 h 75.5556 c 198.62056,0 399.36868,-8.5876 597.77658,0.042 28.7629,1.2511 8.4578,32.5482 24.9536,45.2829 13.3878,10.3356 58.5229,5.1929 75.0393,3.3213 9.0627,-1.0266 14.8703,-6.3864 16.9087,-15.3224 5.3049,-23.2574 2.8418,-55.7414 3.0914,-79.9914 0.6831,-66.348 10.7949,-133.1256 11.1213,-200.0001 0.1822,-37.03962 6.0078,-67.9752 -26.6698,-94.51476 -7.6051,-6.17646 -45.0958,-20.21602 -43.0405,-31.4798 1.3298,-7.28646 15.8149,-4.678 20.8198,-5.7889 20.4367,-4.53556 26.0156,-24.64512 8.846,-37.23246 -15.8409,-11.6129 -44.4767,-13.53868 -56.394,4.61266 -10.9427,16.66668 4.4153,44.81004 -28.0076,32.57024 -48.5284,-18.31956 -57.7811,-85.75248 -104.4445,-112.22584 -29.0049,-16.45512 -61.0829,-17.69178 -93.3334,-20.76312 -71.3578,-6.79556 -144.01962,-7.55356 -215.55566,-4.96866 m -4.44444,22.47912 c 69.03092,0.91934 137.8776,-2.06978 206.6668,2.668 38.8889,2.67866 78.4391,3.10912 111.1112,27.21202 25.932,19.1309 39.2869,49.8478 54.338,77.43138 3.5538,6.51266 15.4882,19.6409 9.9489,27.548 -5.3505,7.63824 -29.3718,3.56378 -37.6203,3.56378 H 1151.8914 807.44672 705.22444 c -11.6989,0 -30.85424,4.06002 -41.70624,0.1956 -12.60958,-4.49044 -0.57822,-22.30134 3.04178,-29.08424 13.92666,-26.09468 28.18734,-54.53048 49.97446,-75.14582 24.02024,-22.72846 49.4407,-22.42112 79.80116,-26.3409 40.83826,-5.27268 80.89228,-8.59756 122.2223,-8.04712 M 569.6688,954.13734 c 12.71424,-1.89668 25.57712,4.34466 37.7778,6.99066 33.55692,7.278 76.67894,14.46402 106.66496,31.77802 21.62556,12.48668 31.22334,41.45738 0.002,48.48248 -43.88158,9.874 -98.14184,-1.1489 -142.22232,-5.4149 -15.0749,-1.4587 -37.47934,1.3878 -51.06824,-5.528 -14.19868,-7.226 -9.59046,-20.5462 -5.31734,-32.6269 8.18378,-23.13624 29.8698,-40.05736 54.16336,-43.68136 m 808.88938,-0.1112 c 23.8795,-2.80844 51.5696,16.76402 62.2547,37.12624 7.8413,14.94272 12.5742,36.37492 -8.9229,41.34602 -48.1632,11.1378 -108.3181,9.7651 -157.7763,9.7651 -16.7256,0 -41.5674,4.8392 -50.7047,-13.3675 -9.8285,-19.5836 14.6898,-30.80806 28.4824,-36.71984 38.5658,-16.53044 84.7839,-33.22424 126.6668,-38.15002 M 849.66896,1136.2314 c 24.93736,-2.9425 66.91872,-6.8696 90.85918,0.974 19.88822,6.5158 -15.56068,18.2924 -21.96846,19.1322 -18.90934,2.478 -38.6547,-1.4904 -57.7796,-0.6533 -38.18624,1.672 -77.24048,4.56 -115.55562,1.936 -8.85022,-0.606 -49.59202,1.7424 -51.28602,-8.7774 -1.53978,-9.5622 14.66178,-8.7706 20.1749,-8.8 24.39024,-0.1288 48.96668,0.9778 73.33338,-0.089 20.54822,-0.9 41.79668,-1.3124 62.22224,-3.7226 m 420.00024,19.3651 c -51.0493,2.1915 -102.124,2.2222 -153.3334,2.2222 -33.6796,0 -66.2596,2.8598 -97.7778,-11.1111 v -4.4445 c 55.9355,-20.9477 128.6211,-2.2222 186.6667,-2.2222 19.9927,0 52.7841,-4.9886 64.4445,15.5556 m 0,44.4445 c -54.6625,0 -109.6096,2.2222 -164.4445,2.2222 -30.9818,0 -62.4581,2.934 -91.1112,-11.1111 v -4.4445 c 19.0974,-9.5844 41.4243,-6.6667 62.2223,-6.6667 43.1271,0 86.0038,4.2358 128.8889,4.4429 19.3076,0.093 52.7754,-3.7266 64.4445,15.5572 m -320.00018,-8.8889 c -52.4298,20.862 -117.37584,11.1111 -173.33342,11.1111 -26.6878,0 -61.15026,3.0982 -86.66672,-4.4445 7.23756,-19.3584 34.2269,-13.3333 51.11114,-13.3333 50.45336,0 100.61028,-2.2222 151.1112,-2.2222 15.7369,0 49.18402,-6.696 57.7778,8.8889 z"
       id="path1" />
  </g>
</svg>
